<svg xmlns="http://www.w3.org/2000/svg" viewBox="0 0 120 120" width="120" height="120" role="img" aria-label="Clinic logo">
  <defs>
    <linearGradient id="g" x1="0" y1="0" x2="1" y2="1">
      <stop offset="0" stop-color="#5B8CFF"/>
      <stop offset="1" stop-color="#22C55E"/>
    </linearGradient>
  </defs>
  <rect x="10" y="10" width="100" height="100" rx="22" fill="url(#g)"/>
  <path d="M58 30h4a4 4 0 0 1 4 4v18h18a4 4 0 0 1 4 4v4a4 4 0 0 1-4 4H66v18a4 4 0 0 1-4 4h-4a4 4 0 0 1-4-4V68H36a4 4 0 0 1-4-4v-4a4 4 0 0 1 4-4h18V34a4 4 0 0 1 4-4z" fill="#fff" opacity="0.95"/>
</svg>
